<?xml version="1.0" encoding="utf-8"?>
<!-- Designed by Vexels.com - 2019 All Rights Reserved - https://vexels.com/terms-and-conditions/  -->
<svg version="1.1" id="Layer_1" xmlns="http://www.w3.org/2000/svg" xmlns:xlink="http://www.w3.org/1999/xlink" x="0px" y="0px"
	 viewBox="0 0 1200 1200" enable-background="new 0 0 1200 1200" xml:space="preserve">
<g>
	<path fill="#E8798E" d="M1150,929.077c0,16.194-13.128,29.321-29.321,29.321H600.466H79.321C63.128,958.398,50,945.271,50,929.077
		V270.923c0-16.194,13.128-29.321,29.321-29.321h1041.357c16.194,0,29.321,13.128,29.321,29.321V929.077z"/>
	<g>
		<path fill="#D36E86" d="M723.419,659.296l417.387-409.656L726.362,611.967C732.053,626.807,730.11,642.974,723.419,659.296z"/>
		<path fill="#D36E86" d="M477.378,611.68L59.237,249.6l420.476,408.632C473.367,642.158,471.68,626.264,477.378,611.68z"/>
	</g>
	<g>
		<path fill="#EF8091" d="M715.638,674.912c-32.417,56.117-109.94,109.546-113.82,112.045
			c-4.046-2.124-79.821-54.522-112.792-110.061L60.576,951.617c5.083,4.232,11.615,6.781,18.745,6.781h521.145h520.213
			c7.168,0,13.729-2.58,18.823-6.852L715.638,674.912z"/>
		<path fill="#EF8091" d="M480.98,604.252c34.392-58.175,81.405-21.286,107.615,8.801c5.379,6.175,9.884,12.064,13.222,16.785
			c3.769-5.331,9.028-12.151,15.353-19.19c26.567-29.57,72.005-63.028,105.485-6.395c1.492,2.524,2.704,5.102,3.707,7.715
			l414.445-362.327c-5.253-4.97-12.325-8.038-20.128-8.038H79.321c-7.781,0-14.835,3.052-20.084,7.998l418.142,362.08l0,0
			C478.361,609.164,479.543,606.684,480.98,604.252z"/>
	</g>
	<path fill="#BE1733" d="M726.362,611.967c-1.002-2.613-2.214-5.191-3.707-7.715c-33.48-56.633-78.918-23.175-105.485,6.395
		c-6.325,7.039-11.584,13.859-15.353,19.19c-3.338-4.721-7.843-10.61-13.222-16.785c-26.211-30.087-73.224-66.976-107.615-8.801
		c-1.438,2.432-2.619,4.912-3.602,7.428l0,0c-5.698,14.584-4.011,30.478,2.335,46.552c2.455,6.218,5.629,12.46,9.313,18.665
		c32.97,55.539,108.746,107.936,112.792,110.061c3.88-2.5,81.404-55.928,113.82-112.045c3.001-5.195,5.648-10.412,7.781-15.616
		C730.11,642.974,732.053,626.807,726.362,611.967L726.362,611.967z"/>
</g>
</svg>
